<svg xmlns="http://www.w3.org/2000/svg" width="24" height="24" viewBox="0 0 24 24">
  <g id="Group_88" data-name="Group 88" transform="translate(0.287 0.218)">
    <circle id="Ellipse_12" data-name="Ellipse 12" cx="12" cy="12" r="12" transform="translate(-0.287 -0.218)" fill="#fff"/>
    <g id="noun-toque-3487890" transform="translate(6.67 6.577)">
      <path id="Path_38" data-name="Path 38" d="M187.03,455h7.281v1.564H187.03Z" transform="translate(-185.318 -445.635)" fill="#5e5e5e"/>
      <path id="Path_39" data-name="Path 39" d="M119.157,36.619a1.961,1.961,0,0,0-1.9,1.492.2.2,0,0,1-.38-.093,2.335,2.335,0,0,1,.592-1.073,1.836,1.836,0,0,0-3.449.115.2.2,0,0,1-.316.084,2.013,2.013,0,0,0-1.334-.525h0a1.958,1.958,0,0,0-.408,3.873h.008a.2.2,0,0,1,.154.191v4.083H119.4V40.685a.2.2,0,0,1,.154-.191l.008,0h0a1.958,1.958,0,0,0-.409-3.874ZM114,43.912a.2.2,0,1,1-.391,0v-2.15a.2.2,0,0,1,.391,0Zm.977,0a.2.2,0,0,1-.391,0V41.274a.2.2,0,1,1,.391,0Zm.977,0a.2.2,0,1,1-.391,0V40.785a.2.2,0,1,1,.391,0Zm.977,0a.2.2,0,1,1-.391,0V41.274a.2.2,0,1,1,.391,0Zm.977,0a.2.2,0,1,1-.391,0v-2.15a.2.2,0,0,1,.391,0Z" transform="translate(-110.41 -35.794)" fill="#5e5e5e"/>
    </g>
  </g>
</svg>
