<svg xmlns="http://www.w3.org/2000/svg" width="24" height="23" viewBox="0 0 24 23">
  <g id="Group_87" data-name="Group 87" transform="translate(0.287 -0.195)">
    <ellipse id="Ellipse_11" data-name="Ellipse 11" cx="12" cy="11.5" rx="12" ry="11.5" transform="translate(-0.287 0.195)" fill="#fff"/>
    <g id="noun-plate-3487862" transform="translate(4.914 7.795)">
      <path id="Path_40" data-name="Path 40" d="M100.47,312.34c.6,0,1.083-.687,1.083-1.531s-.486-1.531-1.083-1.531-1.083.687-1.083,1.531S99.873,312.34,100.47,312.34Z" transform="translate(-99.387 -304.503)" fill="#5e5e5e"/>
      <path id="Path_41" data-name="Path 41" d="M127.085,150.68c.039,0,.077,0,.116.006l.189-3.843a.261.261,0,0,0-.074-.194.325.325,0,0,0-.461,0,.261.261,0,0,0-.074.194l.189,3.843C127.008,150.683,127.046,150.68,127.085,150.68Z" transform="translate(-126.002 -146.403)" fill="#5e5e5e"/>
      <path id="Path_42" data-name="Path 42" d="M551.59,280.535a.26.26,0,0,0,.074-.193l-.184-3.75c-.04,0-.08.006-.12.006s-.08,0-.12-.006l-.184,3.75h0a.26.26,0,0,0,.074.193.324.324,0,0,0,.461,0Z" transform="translate(-538.221 -272.746)" fill="#5e5e5e"/>
      <path id="Path_43" data-name="Path 43" d="M525.04,156.211a.252.252,0,0,1-.248.237h-.43a.251.251,0,0,1-.248-.236l-.075-1.2-.075,1.2a.252.252,0,0,1-.248.237h-.43a.252.252,0,0,1-.248-.237l-.064-1.035-.038,1.244a1.628,1.628,0,0,0,.84,1.5h0a.712.712,0,0,0,.526,0,1.626,1.626,0,0,0,.841-1.5l-.038-1.241Z" transform="translate(-510.9 -154.619)" fill="#5e5e5e"/>
      <path id="Path_44" data-name="Path 44" d="M273.64,197.56a2.267,2.267,0,1,1-2.267-2.267,2.267,2.267,0,0,1,2.267,2.267" transform="translate(-264.283 -193.757)" fill="#5e5e5e"/>
      <path id="Path_45" data-name="Path 45" d="M218.866,148.857a3.807,3.807,0,1,0-2.687-1.115A3.8,3.8,0,0,0,218.866,148.857Zm0-6.567a2.767,2.767,0,1,1-1.954.81A2.764,2.764,0,0,1,218.866,142.29Z" transform="translate(-211.777 -141.252)" fill="#5e5e5e"/>
    </g>
  </g>
</svg>
